####
#
# OBJ File Generated by Meshlab
#
####
# Object barkely_hide_bones.obj
#
# Vertices: 28
# Faces: 52
#
####
mtllib ./barkely_hide_bones.obj.mtl

vn -1.570796 1.570796 1.570796
v -0.020000 0.033000 0.055239 0.749020 0.749020 0.749020
vn -1.570796 1.570796 -1.570796
v -0.020000 0.033000 -0.055239 0.749020 0.749020 0.749020
vn -1.570796 -1.570796 -1.570796
v -0.020000 -0.097000 -0.055239 0.749020 0.749020 0.749020
vn -1.570796 -1.570796 1.570796
v -0.020000 -0.097000 0.055239 0.749020 0.749020 0.749020
vn -1.570796 3.141593 0.000000
v -0.010000 0.033000 -0.055239 0.749020 0.749020 0.749020
vn 1.570796 3.141593 0.000000
v -0.009900 0.033000 -0.055239 0.749020 0.749020 0.749020
vn 1.570796 1.570796 -1.570796
v 0.020000 0.033000 -0.055239 0.749020 0.749020 0.749020
vn 1.570796 -1.570796 -1.570796
v 0.020000 -0.097000 -0.055239 0.749020 0.749020 0.749020
vn 1.570796 1.570799 1.570796
v 0.020000 0.033000 0.055239 0.749020 0.749020 0.749020
vn 1.570796 -1.570796 1.570796
v 0.020000 -0.097000 0.055239 0.749020 0.749020 0.749020
vn 3.141593 -1.570796 0.000000
v -0.009900 0.033000 0.055239 0.749020 0.749020 0.749020
vn -3.141593 -1.570796 0.000000
v -0.010000 0.033000 0.055239 0.749020 0.749020 0.749020
vn -3.141593 3.141601 0.000000
v -0.010000 0.097000 0.055239 0.749020 0.749020 0.749020
vn -1.570796 1.570796 0.000000
v -0.010000 0.097000 -0.055239 0.749020 0.749020 0.749020
vn 1.570796 1.570805 0.000000
v -0.009900 0.097000 -0.055239 0.749020 0.749020 0.749020
vn 3.141593 3.141593 0.000000
v -0.009900 0.097000 0.055239 0.749020 0.749020 0.749020
vn 1.570797 1.570796 1.570778
v -0.009900 0.097000 0.060500 0.749020 0.749020 0.749020
vn 1.570796 -1.570796 1.570796
v -0.009900 0.033000 0.060500 0.749020 0.749020 0.749020
vn 1.570797 1.570796 0.000000
v -0.009900 0.097000 -0.055239 0.749020 0.749020 0.749020
vn 1.570796 -1.570796 0.000000
v -0.009900 0.033000 -0.055239 0.749020 0.749020 0.749020
vn 1.570797 -1.570796 -1.570778
v -0.009900 0.033000 -0.060500 0.749020 0.749020 0.749020
vn 1.570796 1.570796 -1.570796
v -0.009900 0.097000 -0.060500 0.749020 0.749020 0.749020
vn -1.570797 -1.570796 0.000000
v -0.010000 0.033000 -0.055239 0.749020 0.749020 0.749020
vn -1.570796 1.570796 0.000000
v -0.010000 0.097000 -0.055239 0.749020 0.749020 0.749020
vn -1.570797 1.570796 -1.570778
v -0.010000 0.097000 -0.060500 0.749020 0.749020 0.749020
vn -1.570796 -1.570796 -1.570796
v -0.010000 0.033000 -0.060500 0.749020 0.749020 0.749020
vn -1.570797 -1.570796 1.570778
v -0.010000 0.033000 0.060500 0.749020 0.749020 0.749020
vn -1.570796 1.570796 1.570796
v -0.010000 0.097000 0.060500 0.749020 0.749020 0.749020
# 28 vertices, 0 vertices normals


usemtl material_0
vt 0.365407 0.487950
vt 0.404622 0.134650
vt 0.970815 0.166344
f 1/1/1 2/2/2 3/3/3
vt 0.931599 0.519643
f 1/1/1 3/3/3 4/4/4
vt 0.915600 0.552281
vt 0.915600 0.567864
vt 0.916102 0.591238
f 2/5/2 5/6/5 6/7/6
vt 0.915600 0.614612
f 2/5/2 6/7/6 7/8/7
vt 0.416558 0.614612
f 2/5/2 7/8/7 8/9/8
vt 0.416558 0.552281
f 2/5/2 8/9/8 3/10/3
vt 0.406578 0.971515
vt 0.406578 0.643158
vt 0.933865 0.643158
f 7/11/7 9/12/9 10/13/10
vt 0.933865 0.971515
f 7/11/7 10/13/10 8/14/8
vt 0.924434 0.029889
vt 0.924434 0.084437
vt 0.924609 0.093650
f 9/15/9 11/16/11 12/17/12
vt 0.924434 0.102863
f 12/17/12 1/18/1 9/15/9
vt 0.408255 0.102863
f 9/15/9 1/18/1 4/19/4
vt 0.408255 0.029889
f 9/15/9 4/19/4 10/20/10
vt 0.354249 0.644267
vt 0.354249 0.984734
vt 0.307992 0.984734
f 4/21/4 3/22/3 8/23/8
vt 0.307992 0.644267
f 4/21/4 8/23/8 10/24/10
vt 0.301449 0.984198
vt 0.301449 0.638734
vt 0.354643 0.638734
f 9/25/9 7/26/7 6/27/6
vt 0.357902 0.638833
f 9/25/9 6/27/6 5/28/5
vt 0.375693 0.638833
f 9/25/9 5/28/5 2/29/2
vt 0.375693 0.984297
f 2/29/2 1/30/1 9/25/9
vt 0.073076 0.549258
vt 0.035860 0.068819
vt 0.301076 0.064270
f 5/31/5 12/32/12 13/33/13
vt 0.338292 0.544708
f 5/31/5 13/33/13 14/34/14
vt 0.043306 0.958212
vt 0.028755 0.670554
vt 0.246406 0.664652
f 11/35/11 6/36/6 15/37/15
vt 0.260957 0.952310
f 11/35/11 15/37/15 16/38/16
vt 0.044035 0.961064
vt 0.261558 0.951026
vt 0.262627 0.962808
f 11/39/11 16/40/16 17/41/17
vt 0.045104 0.972846
f 11/39/11 17/41/17 18/42/18
vt 0.246050 0.665851
vt 0.030808 0.665851
vt 0.030808 0.654524
f 19/43/19 20/44/20 21/45/21
vt 0.246050 0.654524
f 19/43/19 21/45/21 22/46/22
vt 0.072754 0.546718
vt 0.338214 0.546718
vt 0.338214 0.568766
f 23/47/23 24/48/24 25/49/25
vt 0.072754 0.568766
f 23/47/23 25/49/25 26/50/26
vt 0.305181 0.064114
vt 0.029679 0.069033
vt 0.029110 0.051130
f 13/51/13 12/52/12 27/53/27
vt 0.304612 0.046211
f 13/51/13 27/53/27 28/54/28
vt 0.000000 0.000000
f 15/55/15 14/55/14 13/55/13
f 15/55/15 13/55/13 16/55/16
f 15/55/15 6/55/6 20/55/20
f 15/55/15 20/55/20 19/55/19
f 5/55/5 14/55/14 24/55/24
f 5/55/5 24/55/24 23/55/23
f 14/55/14 15/55/15 19/55/19
f 14/55/14 19/55/19 24/55/24
f 6/55/6 5/55/5 23/55/23
f 6/55/6 23/55/23 20/55/20
f 21/55/21 26/55/26 25/55/25
f 21/55/21 25/55/25 22/55/22
f 24/55/24 19/55/19 22/55/22
f 24/55/24 22/55/22 25/55/25
f 20/55/20 23/55/23 26/55/26
f 20/55/20 26/55/26 21/55/21
f 27/55/27 18/55/18 17/55/17
f 27/55/27 17/55/17 28/55/28
f 16/55/16 13/55/13 28/55/28
f 16/55/16 28/55/28 17/55/17
f 12/55/12 11/55/11 18/55/18
f 12/55/12 18/55/18 27/55/27
# 52 faces, 55 coords texture

# End of File