####
#
# OBJ File Generated by Meshlab
#
####
# Object cherokee_easy_tee_shirt.obj
#
# Vertices: 8
# Faces: 12
#
####
mtllib ./cherokee_easy_tee_shirt.obj.mtl

vn -1.570796 -1.570796 1.570796
v -0.007500 -0.112500 0.085000 0.752941 0.752941 0.752941
vn -1.570796 -1.570796 -1.570796
v -0.007500 -0.112500 -0.085000 0.752941 0.752941 0.752941
vn 1.570796 -1.570796 -1.570796
v 0.007500 -0.112500 -0.085000 0.752941 0.752941 0.752941
vn 1.570796 -1.570796 1.570796
v 0.007500 -0.112500 0.085000 0.752941 0.752941 0.752941
vn -1.570796 1.570796 1.570796
v -0.007500 0.112500 0.085000 0.752941 0.752941 0.752941
vn -1.570796 1.570796 -1.570796
v -0.007500 0.112500 -0.085000 0.752941 0.752941 0.752941
vn 1.570796 1.570796 -1.570796
v 0.007500 0.112500 -0.085000 0.752941 0.752941 0.752941
vn 1.570796 1.570796 1.570796
v 0.007500 0.112500 0.085000 0.752941 0.752941 0.752941
# 8 vertices, 0 vertices normals


usemtl material_0
vt 0.614761 0.939631
vt 0.330827 0.939631
vt 0.330827 0.338524
f 5/1/5 6/2/6 2/3/2
vt 0.614761 0.338524
f 5/1/5 2/3/2 1/4/1
vt 0.618728 0.537662
vt 0.618728 0.598932
vt 0.337400 0.598932
f 6/5/6 7/6/7 3/7/3
vt 0.337400 0.537662
f 6/5/6 3/7/3 2/8/2
vt 0.276019 0.933033
vt 0.039995 0.933033
vt 0.039995 0.489167
f 7/9/7 8/10/8 4/11/4
vt 0.276019 0.489167
f 7/9/7 4/11/4 3/12/3
vt 0.601688 0.465445
vt 0.601688 0.529588
vt 0.359097 0.529588
f 8/13/8 5/14/5 1/15/1
vt 0.359097 0.465445
f 8/13/8 1/15/1 4/16/4
vt 0.339630 0.461021
vt 0.612687 0.461021
vt 0.612687 0.525312
f 1/17/1 2/18/2 3/19/3
vt 0.339630 0.525312
f 1/17/1 3/19/3 4/20/4
vt 0.375432 0.398049
vt 0.598491 0.398050
vt 0.598491 0.475035
f 8/21/8 7/22/7 6/23/6
vt 0.375432 0.475035
f 8/21/8 6/23/6 5/24/5
# 12 faces, 24 coords texture

# End of File