####
#
# OBJ File Generated by Meshlab
#
####
# Object creativity_chenille_stems_2.obj
#
# Vertices: 8
# Faces: 12
#
####
mtllib ./creativity_chenille_stems_2.obj.mtl

vn -1.570797 1.570796 1.570796
v -0.007500 0.185000 0.045000 0.752941 0.752941 0.752941
vn -1.570796 1.570796 -1.570796
v -0.007500 0.185000 -0.045000 0.752941 0.752941 0.752941
vn -1.570797 -1.570796 -1.570796
v -0.007500 -0.185000 -0.045000 0.752941 0.752941 0.752941
vn -1.570796 -1.570796 1.570796
v -0.007500 -0.185000 0.045000 0.752941 0.752941 0.752941
vn 1.570797 1.570796 -1.570796
v 0.007500 0.185000 -0.045000 0.752941 0.752941 0.752941
vn 1.570796 -1.570796 -1.570796
v 0.007500 -0.185000 -0.045000 0.752941 0.752941 0.752941
vn 1.570796 1.570796 1.570796
v 0.007500 0.185000 0.045000 0.752941 0.752941 0.752941
vn 1.570797 -1.570796 1.570796
v 0.007500 -0.185000 0.045000 0.752941 0.752941 0.752941
# 8 vertices, 0 vertices normals


usemtl material_0
vt 0.016517 0.271783
vt 0.001592 0.032321
vt 0.998285 0.001592
f 1/1/1 2/2/2 3/3/3
vt 0.997400 0.244508
f 1/1/1 3/3/3 4/4/4
vt 0.933602 0.461988
vt 0.934105 0.493144
vt 0.165580 0.505562
f 2/5/2 5/6/5 6/7/6
vt 0.165077 0.474407
f 2/5/2 6/7/6 3/8/3
vt 0.003579 0.527171
vt 0.001592 0.290811
vt 0.986712 0.275522
f 5/9/5 7/10/7 8/11/8
vt 0.989841 0.518735
f 5/9/5 8/11/8 6/12/6
vt 0.948331 0.304638
vt 0.948331 0.327220
vt 0.196628 0.327220
f 7/13/7 1/14/1 4/15/4
vt 0.196628 0.304639
f 7/13/7 4/15/4 8/16/8
vt 0.967494 0.285291
vt 0.967494 0.489642
vt 0.938742 0.489642
f 4/17/4 3/18/3 6/19/6
vt 0.938742 0.285291
f 4/17/4 6/19/6 8/20/8
vt 0.043959 0.509476
vt 0.043959 0.425675
vt 0.057926 0.425675
f 7/21/7 5/22/5 2/23/2
vt 0.057926 0.509476
f 2/23/2 1/24/1 7/21/7
# 12 faces, 24 coords texture

# End of File
