####
#
# OBJ File Generated by Meshlab
#
####
# Object elmers_washable_no_run_school_glue.obj
#
# Vertices: 136
# Faces: 260
#
####
mtllib ./elmers_washable_no_run_school_glue.obj.mtl

vn -0.000000 -2.971379 -3.130223
v 0.000000 0.045000 -0.007500 0.752941 0.752941 0.752941
vn 0.000000 2.971389 -3.130223
v 0.000000 0.073000 -0.007500 0.752941 0.752941 0.752941
vn 0.532951 2.969585 -3.084273
v 0.001688 0.073000 -0.007356 0.752941 0.752941 0.752941
vn 0.532951 -2.969583 -3.084274
v 0.001688 0.045000 -0.007356 0.752941 0.752941 0.752941
vn 1.059683 2.964899 -2.944459
v 0.003312 0.073000 -0.006929 0.752941 0.752941 0.752941
vn 1.059683 -2.964899 -2.944460
v 0.003312 0.045000 -0.006929 0.752941 0.752941 0.752941
vn 1.571038 2.956882 -2.705089
v 0.004808 0.073000 -0.006236 0.752941 0.752941 0.752941
vn 1.571037 -2.956883 -2.705088
v 0.004808 0.045000 -0.006236 0.752941 0.752941 0.752941
vn 2.051218 2.947592 -2.359986
v 0.006119 0.073000 -0.005303 0.752941 0.752941 0.752941
vn 2.051218 -2.947592 -2.359986
v 0.006119 0.045000 -0.005303 0.752941 0.752941 0.752941
vn 2.477360 2.936000 -1.904825
v 0.007195 0.073000 -0.004167 0.752941 0.752941 0.752941
vn 2.477362 -2.936000 -1.904826
v 0.007195 0.045000 -0.004167 0.752941 0.752941 0.752941
vn 2.819361 2.925929 -1.344060
v 0.007995 0.073000 -0.002870 0.752941 0.752941 0.752941
vn 2.819360 -2.925929 -1.344060
v 0.007995 0.045000 -0.002870 0.752941 0.752941 0.752941
vn 3.043210 2.917552 -0.696524
v 0.008488 0.073000 -0.001463 0.752941 0.752941 0.752941
vn 3.043210 -2.917552 -0.696524
v 0.008488 0.045000 -0.001463 0.752941 0.752941 0.752941
vn 3.121562 2.915628 0.000000
v 0.008654 0.073000 0.000000 0.752941 0.752941 0.752941
vn 3.121562 -2.915628 -0.000000
v 0.008654 0.045000 0.000000 0.752941 0.752941 0.752941
vn 3.043210 2.917552 0.696524
v 0.008488 0.073000 0.001463 0.752941 0.752941 0.752941
vn 3.043210 -2.917552 0.696524
v 0.008488 0.045000 0.001463 0.752941 0.752941 0.752941
vn 2.819360 2.925929 1.344060
v 0.007995 0.073000 0.002870 0.752941 0.752941 0.752941
vn 2.819361 -2.925929 1.344060
v 0.007995 0.045000 0.002870 0.752941 0.752941 0.752941
vn 2.477362 2.935999 1.904826
v 0.007195 0.073000 0.004167 0.752941 0.752941 0.752941
vn 2.477360 -2.935999 1.904825
v 0.007195 0.045000 0.004167 0.752941 0.752941 0.752941
vn 2.051218 2.947592 2.359986
v 0.006119 0.073000 0.005303 0.752941 0.752941 0.752941
vn 2.051218 -2.947592 2.359986
v 0.006119 0.045000 0.005303 0.752941 0.752941 0.752941
vn 1.571037 2.956883 2.705088
v 0.004808 0.073000 0.006236 0.752941 0.752941 0.752941
vn 1.571038 -2.956883 2.705089
v 0.004808 0.045000 0.006236 0.752941 0.752941 0.752941
vn 1.059683 2.964899 2.944460
v 0.003312 0.073000 0.006929 0.752941 0.752941 0.752941
vn 1.059683 -2.964899 2.944459
v 0.003312 0.045000 0.006929 0.752941 0.752941 0.752941
vn 0.532951 2.969583 3.084274
v 0.001688 0.073000 0.007356 0.752941 0.752941 0.752941
vn 0.532951 -2.969583 3.084273
v 0.001688 0.045000 0.007356 0.752941 0.752941 0.752941
vn -0.000000 2.971389 3.130223
v 0.000000 0.073000 0.007500 0.752941 0.752941 0.752941
vn 0.000000 -2.971389 3.130223
v 0.000000 0.045000 0.007500 0.752941 0.752941 0.752941
vn -0.532951 2.969583 3.084273
v -0.001688 0.073000 0.007356 0.752941 0.752941 0.752941
vn -0.532951 -2.969583 3.084274
v -0.001688 0.045000 0.007356 0.752941 0.752941 0.752941
vn -1.059683 2.964899 2.944459
v -0.003312 0.073000 0.006929 0.752941 0.752941 0.752941
vn -1.059683 -2.964899 2.944460
v -0.003312 0.045000 0.006929 0.752941 0.752941 0.752941
vn -1.571038 2.956883 2.705089
v -0.004808 0.073000 0.006236 0.752941 0.752941 0.752941
vn -1.571037 -2.956883 2.705088
v -0.004808 0.045000 0.006236 0.752941 0.752941 0.752941
vn -2.051218 2.947592 2.359986
v -0.006119 0.073000 0.005303 0.752941 0.752941 0.752941
vn -2.051218 -2.947592 2.359986
v -0.006119 0.045000 0.005303 0.752941 0.752941 0.752941
vn -2.477360 2.935999 1.904825
v -0.007195 0.073000 0.004167 0.752941 0.752941 0.752941
vn -2.477362 -2.935999 1.904826
v -0.007195 0.045000 0.004167 0.752941 0.752941 0.752941
vn -2.819361 2.925929 1.344060
v -0.007995 0.073000 0.002870 0.752941 0.752941 0.752941
vn -2.819360 -2.925929 1.344060
v -0.007995 0.045000 0.002870 0.752941 0.752941 0.752941
vn -3.043210 2.917552 0.696524
v -0.008488 0.073000 0.001463 0.752941 0.752941 0.752941
vn -3.043210 -2.917552 0.696524
v -0.008488 0.045000 0.001463 0.752941 0.752941 0.752941
vn -3.121562 2.915628 -0.000000
v -0.008654 0.073000 0.000000 0.752941 0.752941 0.752941
vn -3.121562 -2.915628 0.000000
v -0.008654 0.045000 0.000000 0.752941 0.752941 0.752941
vn -3.043210 2.917552 -0.696524
v -0.008488 0.073000 -0.001463 0.752941 0.752941 0.752941
vn -3.043210 -2.917552 -0.696524
v -0.008488 0.045000 -0.001463 0.752941 0.752941 0.752941
vn -2.819360 2.925929 -1.344060
v -0.007995 0.073000 -0.002870 0.752941 0.752941 0.752941
vn -2.819361 -2.925929 -1.344060
v -0.007995 0.045000 -0.002870 0.752941 0.752941 0.752941
vn -2.477362 2.936000 -1.904826
v -0.007195 0.073000 -0.004167 0.752941 0.752941 0.752941
vn -2.477360 -2.936000 -1.904825
v -0.007195 0.045000 -0.004167 0.752941 0.752941 0.752941
vn -2.051218 2.947592 -2.359986
v -0.006119 0.073000 -0.005303 0.752941 0.752941 0.752941
vn -2.051218 -2.947592 -2.359986
v -0.006119 0.045000 -0.005303 0.752941 0.752941 0.752941
vn -1.571037 2.956883 -2.705088
v -0.004808 0.073000 -0.006236 0.752941 0.752941 0.752941
vn -1.571038 -2.956883 -2.705089
v -0.004808 0.045000 -0.006236 0.752941 0.752941 0.752941
vn -1.059683 2.964899 -2.944460
v -0.003312 0.073000 -0.006929 0.752941 0.752941 0.752941
vn -1.059683 -2.964899 -2.944459
v -0.003312 0.045000 -0.006929 0.752941 0.752941 0.752941
vn -0.532951 2.969583 -3.084274
v -0.001688 0.073000 -0.007356 0.752941 0.752941 0.752941
vn -0.532951 -2.969583 -3.084273
v -0.001688 0.045000 -0.007356 0.752941 0.752941 0.752941
vn 0.000000 -2.971419 -3.130229
v 0.000000 0.027000 -0.012500 0.752941 0.752941 0.752941
vn -0.000000 2.971430 -3.130229
v 0.000000 0.045000 -0.012500 0.752941 0.752941 0.752941
vn 0.533187 2.969383 -3.084206
v 0.002814 0.045000 -0.012260 0.752941 0.752941 0.752941
vn 0.533187 -2.969388 -3.084206
v 0.002814 0.027000 -0.012260 0.752941 0.752941 0.752941
vn 1.060023 2.965023 -2.944355
v 0.005520 0.045000 -0.011548 0.752941 0.752941 0.752941
vn 1.060023 -2.965023 -2.944356
v 0.005520 0.027000 -0.011548 0.752941 0.752941 0.752941
vn 1.570445 2.957454 -2.705528
v 0.008013 0.045000 -0.010393 0.752941 0.752941 0.752941
vn 1.570445 -2.957454 -2.705528
v 0.008013 0.027000 -0.010393 0.752941 0.752941 0.752941
vn 2.050843 2.946804 -2.360153
v 0.010199 0.045000 -0.008839 0.752941 0.752941 0.752941
vn 2.050843 -2.946804 -2.360153
v 0.010199 0.027000 -0.008839 0.752941 0.752941 0.752941
vn 2.477630 2.936294 -1.904554
v 0.011992 0.045000 -0.006945 0.752941 0.752941 0.752941
vn 2.477629 -2.936294 -1.904554
v 0.011992 0.027000 -0.006945 0.752941 0.752941 0.752941
vn 2.819470 2.925649 -1.343719
v 0.013325 0.045000 -0.004784 0.752941 0.752941 0.752941
vn 2.819470 -2.925650 -1.343719
v 0.013325 0.027000 -0.004784 0.752941 0.752941 0.752941
vn 3.043323 2.917910 -0.696311
v 0.014146 0.045000 -0.002439 0.752941 0.752941 0.752941
vn 3.043323 -2.917909 -0.696311
v 0.014146 0.027000 -0.002439 0.752941 0.752941 0.752941
vn 3.121526 2.915420 -0.000000
v 0.014423 0.045000 0.000000 0.752941 0.752941 0.752941
vn 3.121526 -2.915420 0.000000
v 0.014423 0.027000 0.000000 0.752941 0.752941 0.752941
vn 3.043323 2.917909 0.696311
v 0.014146 0.045000 0.002439 0.752941 0.752941 0.752941
vn 3.043323 -2.917909 0.696311
v 0.014146 0.027000 0.002439 0.752941 0.752941 0.752941
vn 2.819470 2.925650 1.343719
v 0.013325 0.045000 0.004784 0.752941 0.752941 0.752941
vn 2.819470 -2.925650 1.343719
v 0.013325 0.027000 0.004784 0.752941 0.752941 0.752941
vn 2.477629 2.936294 1.904554
v 0.011992 0.045000 0.006945 0.752941 0.752941 0.752941
vn 2.477630 -2.936294 1.904554
v 0.011992 0.027000 0.006945 0.752941 0.752941 0.752941
vn 2.050843 2.946804 2.360153
v 0.010199 0.045000 0.008839 0.752941 0.752941 0.752941
vn 2.050843 -2.946804 2.360153
v 0.010199 0.027000 0.008839 0.752941 0.752941 0.752941
vn 1.570445 2.957454 2.705528
v 0.008013 0.045000 0.010393 0.752941 0.752941 0.752941
vn 1.570445 -2.957454 2.705528
v 0.008013 0.027000 0.010393 0.752941 0.752941 0.752941
vn 1.060023 2.965023 2.944356
v 0.005520 0.045000 0.011548 0.752941 0.752941 0.752941
vn 1.060023 -2.965023 2.944355
v 0.005520 0.027000 0.011548 0.752941 0.752941 0.752941
vn 0.533187 2.969388 3.084206
v 0.002814 0.045000 0.012260 0.752941 0.752941 0.752941
vn 0.533187 -2.969388 3.084206
v 0.002814 0.027000 0.012260 0.752941 0.752941 0.752941
vn 0.000000 2.971429 3.130229
v 0.000000 0.045000 0.012500 0.752941 0.752941 0.752941
vn -0.000000 -2.971429 3.130229
v 0.000000 0.027000 0.012500 0.752941 0.752941 0.752941
vn -0.533187 2.969387 3.084206
v -0.002814 0.045000 0.012260 0.752941 0.752941 0.752941
vn -0.533187 -2.969388 3.084206
v -0.002814 0.027000 0.012260 0.752941 0.752941 0.752941
vn -1.060023 2.965023 2.944355
v -0.005520 0.045000 0.011548 0.752941 0.752941 0.752941
vn -1.060023 -2.965023 2.944356
v -0.005520 0.027000 0.011548 0.752941 0.752941 0.752941
vn -1.570445 2.957454 2.705528
v -0.008013 0.045000 0.010393 0.752941 0.752941 0.752941
vn -1.570445 -2.957454 2.705528
v -0.008013 0.027000 0.010393 0.752941 0.752941 0.752941
vn -2.050843 2.946804 2.360153
v -0.010199 0.045000 0.008839 0.752941 0.752941 0.752941
vn -2.050843 -2.946804 2.360153
v -0.010199 0.027000 0.008839 0.752941 0.752941 0.752941
vn -2.477630 2.936294 1.904554
v -0.011992 0.045000 0.006945 0.752941 0.752941 0.752941
vn -2.477629 -2.936294 1.904554
v -0.011992 0.027000 0.006945 0.752941 0.752941 0.752941
vn -2.819470 2.925650 1.343719
v -0.013325 0.045000 0.004784 0.752941 0.752941 0.752941
vn -2.819470 -2.925650 1.343719
v -0.013325 0.027000 0.004784 0.752941 0.752941 0.752941
vn -3.043323 2.917909 0.696311
v -0.014146 0.045000 0.002439 0.752941 0.752941 0.752941
vn -3.043323 -2.917909 0.696311
v -0.014146 0.027000 0.002439 0.752941 0.752941 0.752941
vn -3.121526 2.915420 0.000000
v -0.014423 0.045000 0.000000 0.752941 0.752941 0.752941
vn -3.121526 -2.915420 -0.000000
v -0.014423 0.027000 0.000000 0.752941 0.752941 0.752941
vn -3.043323 2.917909 -0.696311
v -0.014146 0.045000 -0.002439 0.752941 0.752941 0.752941
vn -3.043323 -2.917909 -0.696311
v -0.014146 0.027000 -0.002439 0.752941 0.752941 0.752941
vn -2.819470 2.925650 -1.343719
v -0.013325 0.045000 -0.004784 0.752941 0.752941 0.752941
vn -2.819470 -2.925650 -1.343719
v -0.013325 0.027000 -0.004784 0.752941 0.752941 0.752941
vn -2.477629 2.936294 -1.904554
v -0.011992 0.045000 -0.006945 0.752941 0.752941 0.752941
vn -2.477630 -2.936294 -1.904554
v -0.011992 0.027000 -0.006945 0.752941 0.752941 0.752941
vn -2.050843 2.946804 -2.360153
v -0.010199 0.045000 -0.008839 0.752941 0.752941 0.752941
vn -2.050843 -2.946804 -2.360153
v -0.010199 0.027000 -0.008839 0.752941 0.752941 0.752941
vn -1.570915 2.957784 -2.705310
v -0.008013 0.045000 -0.010393 0.752941 0.752941 0.752941
vn -1.570915 -2.957784 -2.705310
v -0.008013 0.027000 -0.010393 0.752941 0.752941 0.752941
vn -1.059968 2.964348 -2.944276
v -0.005520 0.045000 -0.011549 0.752941 0.752941 0.752941
vn -1.059969 -2.964347 -2.944276
v -0.005520 0.027000 -0.011549 0.752941 0.752941 0.752941
vn -0.532662 2.969732 -3.084345
v -0.002814 0.045000 -0.012260 0.752941 0.752941 0.752941
vn -0.532662 -2.969733 -3.084344
v -0.002814 0.027000 -0.012260 0.752941 0.752941 0.752941
vn -1.570796 1.570796 1.570796
v -0.015000 0.027000 0.032500 0.752941 0.752941 0.752941
vn -1.570796 1.570796 -1.570796
v -0.015000 0.027000 -0.032500 0.752941 0.752941 0.752941
vn -1.570796 -1.570796 -1.570796
v -0.015000 -0.073000 -0.032500 0.752941 0.752941 0.752941
vn -1.570796 -1.570796 1.570796
v -0.015000 -0.073000 0.032500 0.752941 0.752941 0.752941
vn 1.570796 1.570796 -1.570796
v 0.015000 0.027000 -0.032500 0.752941 0.752941 0.752941
vn 1.570796 -1.570796 -1.570796
v 0.015000 -0.073000 -0.032500 0.752941 0.752941 0.752941
vn 1.570796 1.570796 1.570796
v 0.015000 0.027000 0.032500 0.752941 0.752941 0.752941
vn 1.570796 -1.570796 1.570796
v 0.015000 -0.073000 0.032500 0.752941 0.752941 0.752941
# 136 vertices, 0 vertices normals


usemtl material_0
vt 0.893553 0.823625
vt 0.906125 0.816363
vt 0.906161 0.816345
f 1/1/1 2/2/2 3/3/3
vt 0.895450 0.826135
f 1/1/1 3/3/3 4/4/4
vt 0.906193 0.816320
f 4/4/4 3/3/3 5/5/5
vt 0.897820 0.828166
f 4/4/4 5/5/5 6/6/6
vt 0.906219 0.816291
f 6/6/6 5/5/5 7/7/7
vt 0.900486 0.829612
f 6/6/6 7/7/7 8/8/8
vt 0.906238 0.816258
f 8/8/8 7/7/7 9/9/9
vt 0.903277 0.830455
f 8/8/8 9/9/9 10/10/10
vt 0.906249 0.816223
f 10/10/10 9/9/9 11/11/11
vt 0.906050 0.830729
f 10/10/10 11/11/11 12/12/12
vt 0.906253 0.816188
f 12/12/12 11/11/11 13/13/13
vt 0.908710 0.830493
f 12/12/12 13/13/13 14/14/14
vt 0.906249 0.816154
f 14/14/14 13/13/13 15/15/15
vt 0.911197 0.829811
f 14/14/14 15/15/15 16/16/16
vt 0.906239 0.816121
f 16/16/16 15/15/15 17/17/17
vt 0.913480 0.828727
f 16/16/16 17/17/17 18/18/18
vt 0.906222 0.816092
f 18/18/18 17/17/17 19/19/19
vt 0.915543 0.827264
f 18/18/18 19/19/19 20/20/20
vt 0.906199 0.816066
f 20/20/20 19/19/19 21/21/21
vt 0.917355 0.825424
f 20/20/20 21/21/21 22/22/22
vt 0.906171 0.816044
f 22/22/22 21/21/21 23/23/23
vt 0.918858 0.823208
f 22/22/22 23/23/23 24/24/24
vt 0.906138 0.816028
f 24/24/24 23/23/23 25/25/25
vt 0.919964 0.820640
f 24/24/24 25/25/25 26/26/26
vt 0.906102 0.816018
f 26/26/26 25/25/25 27/27/27
vt 0.920566 0.817774
f 26/26/26 27/27/27 28/28/28
vt 0.906064 0.816016
f 28/28/28 27/27/27 29/29/29
vt 0.920569 0.814728
f 28/28/28 29/29/29 30/30/30
vt 0.906026 0.816020
f 30/30/30 29/29/29 31/31/31
vt 0.919907 0.811660
f 30/30/30 31/31/31 32/32/32
vt 0.905988 0.816032
f 32/32/32 31/31/31 33/33/33
vt 0.918581 0.808767
f 32/32/32 33/33/33 34/34/34
vt 0.905954 0.816051
f 34/34/34 33/33/33 35/35/35
vt 0.916659 0.806233
f 34/34/34 35/35/35 36/36/36
vt 0.905924 0.816076
f 36/36/36 35/35/35 37/37/37
vt 0.914274 0.804203
f 36/36/36 37/37/37 38/38/38
vt 0.905901 0.816105
f 38/38/38 37/37/37 39/39/39
vt 0.911599 0.802764
f 38/38/38 39/39/39 40/40/40
vt 0.905883 0.816138
f 40/40/40 39/39/39 41/41/41
vt 0.908804 0.801931
f 40/40/40 41/41/41 42/42/42
vt 0.905873 0.816173
f 42/42/42 41/41/41 43/43/43
vt 0.906030 0.801669
f 42/42/42 43/43/43 44/44/44
vt 0.905870 0.816208
f 44/44/44 43/43/43 45/45/45
vt 0.903373 0.801915
f 44/44/44 45/45/45 46/46/46
vt 0.905874 0.816243
f 46/46/46 45/45/45 47/47/47
vt 0.900892 0.802607
f 46/46/46 47/47/47 48/48/48
vt 0.905884 0.816275
f 48/48/48 47/47/47 49/49/49
vt 0.898615 0.803698
f 48/48/48 49/49/49 50/50/50
vt 0.905900 0.816304
f 50/50/50 49/49/49 51/51/51
vt 0.896559 0.805167
f 50/50/50 51/51/51 52/52/52
vt 0.905921 0.816330
f 52/52/52 51/51/51 53/53/53
vt 0.894757 0.807012
f 52/52/52 53/53/53 54/54/54
vt 0.905948 0.816351
f 54/54/54 53/53/53 55/55/55
vt 0.893264 0.809229
f 54/54/54 55/55/55 56/56/56
vt 0.905978 0.816367
f 56/56/56 55/55/55 57/57/57
vt 0.892169 0.811795
f 56/56/56 57/57/57 58/58/58
vt 0.906013 0.816377
f 58/58/58 57/57/57 59/59/59
vt 0.891572 0.814653
f 58/58/58 59/59/59 60/60/60
vt 0.906049 0.816379
f 60/60/60 59/59/59 61/61/61
vt 0.891572 0.817689
f 60/60/60 61/61/61 62/62/62
vt 0.000000 0.000000
f 3/63/3 2/63/2 63/63/63
vt 0.906160 0.816344
vt 0.906086 0.816374
f 3/64/3 63/65/63 61/61/61
f 3/64/3 61/61/61 59/59/59
f 3/64/3 59/59/59 57/57/57
f 3/64/3 57/57/57 55/55/55
f 3/64/3 55/55/55 53/53/53
f 3/64/3 53/53/53 51/51/51
f 3/64/3 51/51/51 49/49/49
f 3/64/3 49/49/49 47/47/47
f 3/64/3 47/47/47 45/45/45
f 3/64/3 45/45/45 43/43/43
f 3/64/3 43/43/43 41/41/41
f 3/64/3 41/41/41 39/39/39
f 3/64/3 39/39/39 37/37/37
f 3/64/3 37/37/37 35/35/35
f 3/64/3 35/35/35 33/33/33
f 3/64/3 33/33/33 31/31/31
f 3/64/3 31/31/31 29/29/29
f 3/64/3 29/29/29 27/27/27
f 3/64/3 27/27/27 25/25/25
f 3/64/3 25/25/25 23/23/23
f 3/64/3 23/23/23 21/21/21
f 3/64/3 21/21/21 19/19/19
f 3/64/3 19/19/19 17/17/17
f 3/64/3 17/17/17 15/15/15
f 3/64/3 15/15/15 13/13/13
f 3/64/3 13/13/13 11/11/11
f 3/64/3 11/11/11 9/9/9
f 3/63/3 9/63/9 7/63/7
f 3/63/3 7/63/7 5/63/5
f 62/62/62 61/61/61 63/65/63
vt 0.892232 0.820745
f 62/62/62 63/65/63 64/66/64
f 64/66/64 63/65/63 2/2/2
f 2/2/2 1/1/1 64/66/64
vt 0.915152 0.835013
vt 0.906292 0.844930
vt 0.905737 0.844478
f 65/67/65 66/68/66 67/69/67
vt 0.912369 0.832966
f 65/67/65 67/69/67 68/70/68
vt 0.905110 0.844132
f 68/70/68 67/69/67 69/71/69
vt 0.909217 0.831532
f 68/70/68 69/71/69 70/72/70
vt 0.904453 0.843899
f 70/72/70 69/71/69 71/73/71
vt 0.905906 0.830794
f 70/72/70 71/73/71 72/74/72
vt 0.903790 0.843800
f 72/74/72 71/73/71 73/75/73
vt 0.902614 0.830741
f 72/74/72 73/75/73 74/76/74
vt 0.903151 0.843834
f 74/76/74 73/75/73 75/77/75
vt 0.899488 0.831316
f 74/76/74 75/77/75 76/78/76
vt 0.902558 0.843996
f 76/78/76 75/77/75 77/79/77
vt 0.896627 0.832437
f 76/78/76 77/79/77 78/80/78
vt 0.902029 0.844274
f 78/80/78 77/79/77 79/81/79
vt 0.894094 0.834022
f 78/80/78 79/81/79 80/82/80
vt 0.901576 0.844658
f 80/82/80 79/81/79 81/83/81
vt 0.891921 0.836006
f 80/82/80 81/83/81 82/84/82
vt 0.901210 0.845134
f 82/84/82 81/83/81 83/85/83
vt 0.890137 0.838345
f 82/84/82 83/85/83 84/86/84
vt 0.900944 0.845689
f 84/86/84 83/85/83 85/87/85
vt 0.888778 0.841007
f 84/86/84 85/87/85 86/88/86
vt 0.900787 0.846305
f 86/88/86 85/87/85 87/89/87
vt 0.887903 0.843956
f 86/88/86 87/89/87 88/90/88
vt 0.900752 0.846963
f 88/90/88 87/89/87 89/91/89
vt 0.887587 0.847129
f 88/90/88 89/91/89 90/92/90
vt 0.900847 0.847638
f 90/92/90 89/91/89 91/93/91
vt 0.887909 0.850424
f 90/92/90 91/93/91 92/94/92
vt 0.901073 0.848301
f 92/94/92 91/93/91 93/95/93
vt 0.888923 0.853690
f 92/94/92 93/95/93 94/96/94
vt 0.901426 0.848922
f 94/96/94 93/95/93 95/97/95
vt 0.890637 0.856750
f 94/96/94 95/97/95 96/98/96
vt 0.901895 0.849469
f 96/98/96 95/97/95 97/99/97
vt 0.892993 0.859409
f 96/98/96 97/99/97 98/100/98
vt 0.902458 0.849918
f 98/100/98 97/99/97 99/101/99
vt 0.895864 0.861502
f 98/100/98 99/101/99 100/102/100
vt 0.903088 0.850248
f 100/102/100 99/101/99 101/103/101
vt 0.899074 0.862918
f 100/102/100 101/103/101 102/104/102
vt 0.903755 0.850447
f 102/104/102 101/103/101 103/105/103
vt 0.902426 0.863614
f 102/104/102 103/105/103 104/106/104
vt 0.904430 0.850514
f 104/106/104 103/105/103 105/107/105
vt 0.905740 0.863614
f 104/106/104 105/107/105 106/108/106
vt 0.905084 0.850450
f 106/108/106 105/107/105 107/109/107
vt 0.908869 0.862988
f 106/108/106 107/109/107 108/110/108
vt 0.905693 0.850267
f 108/110/108 107/109/107 109/111/109
vt 0.911718 0.861826
f 108/110/108 109/111/109 110/112/110
vt 0.906237 0.849976
f 110/112/110 109/111/109 111/113/111
vt 0.914231 0.860210
f 110/112/110 111/113/111 112/114/112
vt 0.906702 0.849589
f 112/114/112 111/113/111 113/115/113
vt 0.916378 0.858206
f 112/114/112 113/115/113 114/116/114
vt 0.907072 0.849120
f 114/116/114 113/115/113 115/117/115
vt 0.918133 0.855855
f 114/116/114 115/117/115 116/118/116
vt 0.907335 0.848582
f 116/118/116 115/117/115 117/119/117
vt 0.919457 0.853191
f 116/118/116 117/119/117 118/120/118
vt 0.907481 0.847988
f 118/120/118 117/119/117 119/121/119
vt 0.920293 0.850252
f 118/120/118 119/121/119 120/122/120
vt 0.907500 0.847356
f 120/122/120 119/121/119 121/123/121
vt 0.920569 0.847104
f 120/122/120 121/123/121 122/124/122
vt 0.907387 0.846707
f 122/124/122 121/123/121 123/125/123
vt 0.920214 0.843849
f 122/124/122 123/125/123 124/126/124
vt 0.907141 0.846067
f 124/126/124 123/125/123 125/127/125
vt 0.919183 0.840632
f 124/126/124 125/127/125 126/128/126
f 67/63/67 66/63/66 127/63/127
vt 0.905729 0.844489
vt 0.906770 0.845465
f 67/129/67 127/130/127 125/127/125
f 67/129/67 125/127/125 123/125/123
f 67/129/67 123/125/123 121/123/121
f 67/129/67 121/123/121 119/121/119
f 67/129/67 119/121/119 117/119/117
f 67/129/67 117/119/117 115/117/115
f 67/129/67 115/117/115 113/115/113
f 67/129/67 113/115/113 111/113/111
f 67/129/67 111/113/111 109/111/109
f 67/129/67 109/111/109 107/109/107
f 67/129/67 107/109/107 105/107/105
f 67/129/67 105/107/105 103/105/103
f 67/129/67 103/105/103 101/103/101
f 67/129/67 101/103/101 99/101/99
f 67/129/67 99/101/99 97/99/97
f 67/129/67 97/99/97 95/97/95
f 67/129/67 95/97/95 93/95/93
f 67/129/67 93/95/93 91/93/91
f 67/129/67 91/93/91 89/91/89
f 67/129/67 89/91/89 87/89/87
f 67/129/67 87/89/87 85/87/85
f 67/129/67 85/87/85 83/85/83
f 67/129/67 83/85/83 81/83/81
f 67/129/67 81/83/81 79/81/79
f 67/129/67 79/81/79 77/79/77
f 67/129/67 77/79/77 75/77/75
f 67/129/67 75/77/75 73/75/73
f 67/129/67 73/75/73 71/73/71
f 67/63/67 71/63/71 69/63/69
f 126/128/126 125/127/125 127/130/127
vt 0.917474 0.837626
f 126/128/126 127/130/127 128/131/128
f 128/131/128 127/130/127 66/68/66
f 128/131/128 66/68/66 65/67/65
vt 0.001986 0.977975
vt 0.016186 0.510748
vt 0.738152 0.521885
f 129/132/129 130/133/130 131/134/131
vt 0.736969 0.997719
f 129/132/129 131/134/131 132/135/132
vt 0.520445 0.450759
vt 0.520445 0.493238
vt 0.378847 0.493238
f 130/136/130 133/137/133 134/138/134
vt 0.378847 0.450759
f 130/136/130 134/138/134 131/139/131
vt 0.001986 0.483626
vt 0.017087 0.001986
vt 0.763889 0.016093
f 133/140/133 135/141/135 136/142/136
vt 0.757192 0.506773
f 133/140/133 136/142/136 134/143/134
vt 0.487591 0.030520
vt 0.487591 0.063357
vt 0.378132 0.063357
f 135/144/135 129/145/129 132/146/132
vt 0.378131 0.030520
f 135/144/135 132/146/132 136/147/136
vt 0.306983 0.063358
vt 0.306983 0.030520
f 132/146/132 131/148/131 134/149/134
f 132/146/132 134/149/134 136/147/136
vt 0.558740 0.030520
vt 0.558740 0.063358
f 135/144/135 133/150/133 130/151/130
f 135/144/135 130/151/130 129/145/129
f 1/63/1 4/63/4 6/63/6
f 1/63/1 6/63/6 8/63/8
f 1/63/1 8/63/8 10/63/10
f 1/63/1 10/63/10 12/63/12
f 1/63/1 12/63/12 14/63/14
f 1/63/1 14/63/14 16/63/16
f 1/63/1 16/63/16 18/63/18
f 1/63/1 18/63/18 20/63/20
f 1/63/1 20/63/20 22/63/22
f 1/63/1 22/63/22 24/63/24
f 1/63/1 24/63/24 26/63/26
f 1/63/1 26/63/26 28/63/28
f 1/63/1 28/63/28 30/63/30
f 1/63/1 30/63/30 32/63/32
f 1/63/1 32/63/32 34/63/34
f 1/63/1 34/63/34 36/63/36
f 1/63/1 36/63/36 38/63/38
f 1/63/1 38/63/38 40/63/40
f 1/63/1 40/63/40 42/63/42
f 1/63/1 42/63/42 44/63/44
f 1/63/1 44/63/44 46/63/46
f 1/63/1 46/63/46 48/63/48
f 1/63/1 48/63/48 50/63/50
f 1/63/1 50/63/50 52/63/52
f 1/63/1 52/63/52 54/63/54
f 1/63/1 54/63/54 56/63/56
f 1/63/1 56/63/56 58/63/58
f 1/63/1 58/63/58 60/63/60
f 1/63/1 60/63/60 62/63/62
f 1/63/1 62/63/62 64/63/64
f 65/63/65 68/63/68 70/63/70
f 65/63/65 70/63/70 72/63/72
f 65/63/65 72/63/72 74/63/74
f 65/63/65 74/63/74 76/63/76
f 65/63/65 76/63/76 78/63/78
f 65/63/65 78/63/78 80/63/80
f 65/63/65 80/63/80 82/63/82
f 65/63/65 82/63/82 84/63/84
f 65/63/65 84/63/84 86/63/86
f 65/63/65 86/63/86 88/63/88
f 65/63/65 88/63/88 90/63/90
f 65/63/65 90/63/90 92/63/92
f 65/63/65 92/63/92 94/63/94
f 65/63/65 94/63/94 96/63/96
f 65/63/65 96/63/96 98/63/98
f 65/63/65 98/63/98 100/63/100
f 65/63/65 100/63/100 102/63/102
f 65/63/65 102/63/102 104/63/104
f 65/63/65 104/63/104 106/63/106
f 65/63/65 106/63/106 108/63/108
f 65/63/65 108/63/108 110/63/110
f 65/63/65 110/63/110 112/63/112
f 65/63/65 112/63/112 114/63/114
f 65/63/65 114/63/114 116/63/116
f 65/63/65 116/63/116 118/63/118
f 65/63/65 118/63/118 120/63/120
f 65/63/65 120/63/120 122/63/122
f 65/63/65 122/63/122 124/63/124
f 65/63/65 124/63/124 126/63/126
f 65/63/65 126/63/126 128/63/128
# 260 faces, 151 coords texture

# End of File