####
#
# OBJ File Generated by Meshlab
#
####
# Object scotch_bubble_mailer.obj
#
# Vertices: 8
# Faces: 12
#
####
mtllib ./scotch_bubble_mailer.obj.mtl

vn -1.570796 -1.570798 1.570821
v -0.000250 -0.144000 0.122500 0.752941 0.752941 0.752941
vn -1.570796 -1.570796 -1.570796
v -0.000250 -0.144000 -0.122500 0.752941 0.752941 0.752941
vn 1.570796 -1.570798 -1.570821
v 0.000250 -0.144000 -0.122500 0.752941 0.752941 0.752941
vn 1.570796 -1.570796 1.570796
v 0.000250 -0.144000 0.122500 0.752941 0.752941 0.752941
vn -1.570796 1.570796 1.570796
v -0.000250 0.144000 0.122500 0.752941 0.752941 0.752941
vn -1.570796 1.570798 -1.570821
v -0.000250 0.144000 -0.122500 0.752941 0.752941 0.752941
vn 1.570796 1.570796 -1.570796
v 0.000250 0.144000 -0.122500 0.752941 0.752941 0.752941
vn 1.570796 1.570798 1.570821
v 0.000250 0.144000 0.122500 0.752941 0.752941 0.752941
# 8 vertices, 0 vertices normals


usemtl material_0
vt 0.456265 0.021335
vt 0.953512 0.031990
vt 0.936132 0.521318
f 5/1/5 6/2/6 2/3/2
vt 0.438885 0.510664
f 5/1/5 2/3/2 1/4/1
vt 0.540007 0.976505
vt 0.029990 0.976505
vt 0.029990 0.541311
f 6/5/6 7/6/7 3/7/3
vt 0.540007 0.541311
f 6/5/6 3/7/3 2/8/2
vt 0.537876 0.976505
f 7/9/7 8/6/8 4/7/4
vt 0.537876 0.541311
f 7/9/7 4/7/4 3/10/3
vt 0.027859 0.976505
vt 0.027859 0.541311
f 8/9/8 5/11/5 1/12/1
f 8/9/8 1/12/1 4/10/4
f 1/5/1 2/11/2 3/7/3
f 1/5/1 3/7/3 4/10/4
f 8/9/8 7/6/7 6/12/6
f 8/9/8 6/12/6 5/8/5
# 12 faces, 12 coords texture

# End of File
